<mxfile host="app.diagrams.net" agent="Mozilla/5.0 (Windows NT 10.0; Win64; x64) AppleWebKit/537.36 (KHTML, like Gecko) Chrome/130.0.0.0 Safari/537.36 Edg/130.0.0.0" version="24.8.4">
  <diagram id="C5RBs43oDa-KdzZeNtuy" name="Page-1">
    <mxGraphModel dx="901" dy="587" grid="1" gridSize="10" guides="1" tooltips="1" connect="1" arrows="1" fold="1" page="1" pageScale="1" pageWidth="827" pageHeight="1169" math="0" shadow="0">
      <root>
        <mxCell id="WIyWlLk6GJQsqaUBKTNV-0" />
        <mxCell id="WIyWlLk6GJQsqaUBKTNV-1" parent="WIyWlLk6GJQsqaUBKTNV-0" />
        <mxCell id="TqFiCtSlUsyCCOBjlSMV-3" value="" style="shape=image;verticalLabelPosition=bottom;verticalAlign=top;imageAspect=0;aspect=fixed;image=data:image/png,iVBORw0KGgoAAAANSUhEUgAAAMcAAABvCAMAAABvlCR3AAAAolBMVEX///8AAABEqDMdHR28vLzb29vv7+9GRkbCwsL8/fz4+Pi5ubkPEA+Ym5h1dXU+pivj5uM4pCOoqaiZmZmTlJODhIM0NTR5u3Du9e3U1dROT07i7+C12LHo8ucjnwD3+vZNqz7T5tCZyZNrtGFnaWfLy8sqKyo+Pj4kJCSs1KfB3b6RxoqhzZwvohW41rSKw4NVrEtYWlgkKSMACABer1U0OTMK7xj/AAAGIUlEQVR4nO2ZaZOiOhSGiQtKRDZFEBoQxY3Wtp1x/v9fuzlJkLD0h+l7q7xddZ6qqYGQhPPmLAm2piEIgiAIgiAIgiAIgiAIgiAIgiAIgiDIf0p+fivjzHi1Gf+GJNfyLHtP09TdvSWvtua7ZFu7zAa7UHsbDAa2u7lkr7boe4TlWbuk14uWbAbAdZO/2qTv8FGGLLJugRbbV5sLse2PVxv115TZLk2TGDxwvmx37pUrSctX2/WXlA+mI8i2W1GnsmQ7cLlLfpaQ+PNilG+5FtZNSeDydA+/HvX/IwtDzUhae8YNhLi311j0LcK390G83bWbhUf6ipaxpM/Lxbpuns2mzwfU0xtj9t5isZiN2w3PTt6sfjSdQbs+E0zHWoPR9AsdceqmedzZ+DLIEPe9Z8CULKtLnRCnunYIGY7rPgt1xMQkwMmSvfd30bBayjA4kloIezSCGQTmKVI0arp57D9tJNmnnW57HnxA1br2PLiTU7Xu+pAcKiENHXdyeK419UkNrCZd1vdHMWQinvToAIrauR5/2MPlnLuXvnwON2wjSbuBtWfv8Wod5Bft6hizl1erSC3uikkRHdj/PmvhDYdJtAKnrBypg+w7OqIoOq643yoh9MhU9TokgI3j0vfkxnS43SdgxYTWOkikd3QU8G55zRffB2t1jxTsvxlEi8cajOkdhlOpg6zbOrjlM5B/ly+EsaSVMYLBwzDSc9+TM8t0u1OxnGd4VDqkKkXHmjcL/4/huvKfw3o6bIVX0mTDl47jOqSBTR1sQPScgUY8zPqsDbKgLHvPUiXoCNqtItgnqg5S0KYOv27VFuzKUieY1SvPiITjhI5fTp8OHqUHfrUn5LeahgphcLXjPhlaDjra9Xh8IOb8UDkEdBRyhWodFBwmrYUVHK7VGaLGgo7EKKaj+MOE6H06eCjzOVgceuzfUuuSX+1r/4mw1x9z8AUz3TIqHXsP4t9QdCzBA5YwV2frN2kkJmlUHP3IA4vp8KCAHPU+HTMZWKzHyVmzm+bmJKyNN7u8Nz8ubndHp7/hJTCVU+kY8Uz2ax1g2hTeaY75DlMFYa1jr0wYcROZjjn4BrK+qwOu5xr3i8VHzLvWBrck3G16ZBgB1KuWQo9ntXGXMS90cL97eqXDEyEv/N+rQ9mS6aTWASNZVR12dIyEPxxRCmbCbS3e0ksWv/d8x8bwHZI2U0euHkx8cmodfIvwpQ6wA0oQy8mhzp1zaOTlSmwikvWJmPtKBxdidXUsRCz6cvVWhKhbvCBPk0eQ93zFvkN62M02thTm3PO8+Ukkm9Qh66HQwfr8hj5g00LULvWMwqOQqncn46lDkzt9UwesjKlrDisvFkwctV3MO11y13W756ucH3hb2+BEOSyYeq1D1Hiug96VPisqzhdVwaLM5LVZVQnGWm7xlQ7D79Hhi9K9UCZWU6wiSJmOR8sj4YN/3jbDaq/OBAH21MHOb1LHtN0H6vJQdNpHMluJJQLcM2WAVjo0o2jr0KE/Kxl0qE587+pIym0Qf94aQpIHuOPacgd7RzHip+kRm/xIFR0Q6FwHc8d9+uzDyo9zgvdOlrP5RJzMIEzIqRhNF9y9M03VoelFrYPN4xUH2YnF6UEc5UdMPiSVRqlqXfJ+Lo04z5VN/WPDvz42zRPZXokQh2ezogNChOkYK3104f/xSVlHyCpn1fRYQ4emrzrnXegEhe25/0U80OjUa1SQMnVjltL2Lg8zRvjxcG0uo3VcKdT8smB/g2h6lo4ReL9Qz6PgELDMMqt8EVYbRRUjE6n5qOwJ41VThxlBJygxz28dWFFdy+Zes25drjH8amVfB7sgeLjilx/72j51WZZVnzAcdkcNX23yTEdvNIwty+euXy+Lw2li1R+JrOHPKvJHVWAsLKvOXAc2GDYWKHxPPBhZVl326NIq9uyjc95K94/8cyB/tbLFz1cD97N7eDSMzk2jicJ9tw+/opQ2ohQavpqayqlZo9HfQ9xRvf0pYtxSab/UkwY/8ydeo3zYrpRiu4PHj/xVlGOU2083ZVx32/xH/+VAM7Ikjn/4nz8QBEEQBEEQBEEQBEEQBEEQBEEQBEEQ5C/5B/UiZF3Zdf/1AAAAAElFTkSuQmCC;rounded=1;strokeColor=#788AA3;fontColor=#46495D;fillColor=#B2C9AB;" parent="WIyWlLk6GJQsqaUBKTNV-1" vertex="1">
          <mxGeometry x="190" y="210" width="70" height="39.04" as="geometry" />
        </mxCell>
        <mxCell id="TqFiCtSlUsyCCOBjlSMV-4" value="Extends" style="endArrow=block;endSize=16;endFill=0;html=1;rounded=1;strokeColor=#788AA3;fontColor=#46495D;fillColor=#B2C9AB;" parent="WIyWlLk6GJQsqaUBKTNV-1" edge="1">
          <mxGeometry width="160" relative="1" as="geometry">
            <mxPoint x="594" y="156.5" as="sourcePoint" />
            <mxPoint x="700" y="157" as="targetPoint" />
          </mxGeometry>
        </mxCell>
        <mxCell id="TqFiCtSlUsyCCOBjlSMV-6" value="Extends" style="endArrow=block;endSize=16;endFill=0;html=1;rounded=1;strokeColor=#788AA3;fontColor=#46495D;fillColor=#B2C9AB;entryX=0.5;entryY=0;entryDx=0;entryDy=0;" parent="WIyWlLk6GJQsqaUBKTNV-1" edge="1" target="TqFiCtSlUsyCCOBjlSMV-8">
          <mxGeometry x="-0.3846" width="160" relative="1" as="geometry">
            <mxPoint x="210" y="40" as="sourcePoint" />
            <mxPoint x="170" y="80" as="targetPoint" />
            <Array as="points">
              <mxPoint x="120" y="40" />
            </Array>
            <mxPoint as="offset" />
          </mxGeometry>
        </mxCell>
        <mxCell id="TqFiCtSlUsyCCOBjlSMV-8" value="" style="shape=image;verticalLabelPosition=bottom;verticalAlign=top;imageAspect=0;aspect=fixed;image=data:image/png,iVBORw0KGgoAAAANSUhEUgAAARsAAACyCAMAAABFl5uBAAAAflBMVEX///8AAAD29vbJyckMDAxPT0/w8PDr6+uFhYXc3NweHh6mpqaOjo7S0tL7+/vn5+dra2utra1AQEBjY2MWFhY2Nja8vLydnZ2VlZUuLi60tLRTU1MTExPX19ckJCRDQ0N9fX1bW1uBgYF0dHTDw8OLi4s6OjorKytmZmYhISG9BDkgAAAH4UlEQVR4nO2d22KiMBCGAQUUBMQTHqpItda+/wuuQAJJCEi6xWCY76q4ZJv8zWEymYmaBgAAAAAAAAAAAAAAAAAAAAAAAAAAAAAAAABvgb2JzkszXsRmctmGU9nV6Qu+F83HOkOyHRmyKyad6eyb1QVz8XzZtZOIvz/UCZNxiyzZVZSEv48blUlxIlt2NWUwWjxVJuUnlF3Rl2NdWimTcjjKruxruTqtpXngyq7uK/kSUebBcjALurEUlEbX1wMxB63ny1OVD092tV+Btf6FNA9GsivePfYvpdF15XuO/5sBhVB9zhGfhkt2aq9W2/+Q5rE7V3nzeSUaGu7Pu6dqOEv3apaPkewGdIdB+COS9IPj7NSkzP2ajqIN8Ym68/GZaCXaBxiz2t3DEgtBfBZLq3vHeGTLix5gp7vO3WGy97zjA+8a3eOPhyVc2jPEoFJ2VFGOLMIvswmnzAoUXF3CqzWpKacQ5Lyh6wIFqcVt1ln9ZLL4rTYRVVDFjjOiZ1oBU4U2ir66q6I0GLd50L7kmSo47q6KsghoafRr+6KMibjprpKSiBhtJq1LsqqaHdZSDqxrQsDCNZmiqs3G7B9fxD1uMGX3ndVSDi7dvIVQYdoy0s+d1FAejN9G0MFJm0Yf3VRRGnREgOiWcU8rK7D+vwHW72ebFJ8urtYqfqQbJ+z5pU+It11UURrMbCrs26Sto3kXVZQGvUyJrVIptLaHDmooD/oAfClcnt6oimvbZ+ZU2+7C5Wltdh3UUB7Jn/abk1JnMbSDQny+uFLlHaW0ofvNWrg8bfyp1W/o+UbEIZpDr+FqzTcTWhtho58uf+uiitJgtuHCsTT0ZlMt7xZjF4uewDEeHLXsYo9unOg+PKSLq7WfYvbhoptN5oxCrX24xsRLXIQKsw5Vtfw3lXgtIX84U1g1vx97BJMIlL0yZcU6Xf9hh4XAUmWxmWeqnTOwh5O63ja/pRqPrNr5VGVQtXUaT29sOfVit6YVbfR7iw7gVlI51RtS5cnteFFE+H18PVmN9+xxb8prqvtS0Gpj+pp2LJs8v9Z1HsOLuEGkny+t9YtAc2pm1JKzz/risgKN9l/miieMruBMnIL9U5c08HHb2OCGhMX2sSlvBU7zyBYaytatZGTWJo2r2W0Ih3hq2JK7z6o/ZsNRJUOtLThB4RlNA9qIo4OqpePzdNFV8/iRGHjhOaVPo8J04Xgsai4cUDj5rhgqWU8JZqnN+73k7R74s7GyIyplhhr5jZ6nHhuuj+BmSR+UOnth8RPUzGeGP0+btaJrFKZIgH4SJ8rRZqxu8hQiQM6Kcdg4QDjaKDwPYwJs192io+37vj3lNbqqjUAg+/sSlAdxzm69c/QfzksVbQYhzcPMYYwXXugAo42jem54CX28zTv6p984DOluKWq/dOK8QGmjZq5dLeS44mnzSYyngd2b9OBaePUczr+W2gzq0qQC7PPkZdJhbc6K28K1+PvMT8o7VMn8gquvoSqTMZqsY95ewLrvlnu17y0BAODP8C3LMpR2Rv0Ow5sli91ut14c5uERBCoxtnRYyK1w89aqdJ5nFEt2sEwf7w3+YfTGm20nRtWrovLFeB9/xzW+UPResdvGh+cNvwXp/qdV75qwogzK7dg27BvHjDajttq8VSoV70Qy08NGD9ywkkFoY39wtMlCJ3B/yvaO/ixjiy3fQWhD+6TGRFfBKQ1ZECQ+DceT7xC0KSPXDpvcV2dvzvmVhThSNGs/0mY1JG3wuSXvbC6/4uec/TxEbeJ6aTQt+tF/trmJM0Bt8DRSF3VuMy86f6SN/wamNw5b43p4g5zsZ7Sgrzz0SYM2eSkkopE/GcUbsWaHF/MWz92+u8HQqdKa92dE+WErK20NlUcXVLXxCm2ORbEUFCa4LbRZl5mgPQ9AQUF83Lw4pI1jaYlOU2rjbhDbQhuk0kfeLdBcP6lciZfS7+ha1B3QvsAo0dppw1Jqs6K0+eJq0++IdXRwkB+bbE5rzGnzEm2cHjuY/TH59yNze90utSm3KT3uOAZVxVptZrFZhBqbZmxawtoQ881lFNhTfHNkj7POWmqj1do34tqgaz/QCXKPLUEf9e488POV2uAc6x7bgGguzi0NMp+jRht2z7CZIkJBbbBB3mNt0DRyzh6CyHXdWEgbjl3cThsDeah7vFDNiyYxn3SuzaL32uDMnzLM6lXa3HqvDZ4SywTnV2mDxlSP5xts/JVZTs3atPBRtJyLV73XpsgCMg36g//Wpm6vibRBPg9edFxvKK5HuOXuYn/ZqE0hxlNtkEuoog26Dg/ZC/2+FDHB4uinw32ZLLDzgdEG545dLD/z2dVrg73zZ0Pzrc2O1cbZW77me6h8v70UzCVAGFYbDe8PT6Z54/i2Sm2K3MX1wSyiJ0n/jWMeiu/76vnFONW7FbjaEDGy6XBp8InyvuiM79vSVz1ewjO4X79V0Ya8gqFZG94hco02/Q+33XM2jh6rDXkA2qxN5Zp9UhvqV71DWp7F3ObnzAifaGEzl9kcx9oYkzhtrU+EsDth1i0/sTZTIq8z6fuIyjGuW/zXTiL8FembMKXM9Zlus02QGRn438KidUb+jDKrRuesfziTkaHZrhu6U/TGY+4N3CT7PZe3Sj3z7cB+1stbH7r5dsP/ZVhvMJoAAAAAAAAAAAAAAAAAAAAAAAAAAAAAAADel38wWWCXqI3aeQAAAABJRU5ErkJggg==;rounded=1;strokeColor=#788AA3;fontColor=#46495D;fillColor=#B2C9AB;" parent="WIyWlLk6GJQsqaUBKTNV-1" vertex="1">
          <mxGeometry x="80" y="110" width="79.49" height="50" as="geometry" />
        </mxCell>
        <mxCell id="TqFiCtSlUsyCCOBjlSMV-9" value="" style="shape=image;verticalLabelPosition=bottom;verticalAlign=top;imageAspect=0;aspect=fixed;image=data:image/png,iVBORw0KGgoAAAANSUhEUgAAANkAAAEbCAYAAABX6SF9AAAABHNCSVQICAgIfAhkiAAAAAlwSFlzAAAN1wAADdcBQiibeAAAABl0RVh0U29mdHdhcmUAd3d3Lmlua3NjYXBlLm9yZ5vuPBoAACAASURBVHic7d13vBTl3ffxz+5pHA4gbTh0KSoqxYLYEKPBBBvGFttjiiYmuaOJTmJichvNbRKNmjK5UaOPxho1PiaoEdGoVEEQK0UEpHvoA4cOp+/zx2/n1N2dmT17scvh93699sXRMzN7nd397lxztYnEYjEyxrFKgHHASKA30KvRv92ASOaeTKlWiQHlwIb4Y2P834+AN7HdvZl6okirQ+ZYpcB44GJgLNCu9cVSKqsqgCnAv4FJ2O7m1hws/ZA51gDgbuAqINqaQiiVw+qAF4Dbsd016RwgfMgcqwtwO3ATUJTOkyp1EKoEHgTuxna3h9kxXMgc63vAvUCXME+iVBuyHfgFtvto0B2ChcyxCoGHgO+mXTSl2pa/ATdiu1V+G/qHTBo2JgKjM1I0pdqOd4HL/BpGUofMsYYDk4F+GS2aUm1HGXABtrso2QbJQyZnsA/QgCnlpwwYleyMlrjpXa7BJqIBUyqIfsDEeG5aSNa/9RB6DaZUGKOR3LTQMmTSTK+tiEqF9914fppoek0mHc0r0X4wpdK1HRjcuMO6+ZnsdjRgSrWGNyKqXsOZTMYiLkWHSinVWpXA0d5Yx8ZnsrvRgCmVCUVIngDvTCZ9YhvQ0fRKZUod0Bvb3eyFajwaMKUyKYrkqj5YF2evLEq1WRcDRGJ/7l4CbEVnNCuVaRVA9yiyJocGTKnMaweMiyKL3iilzBgZRVaTUkqZ0VtDppRZvaPImohKKTN66ZlMKbN6R5GVfZVSZnTTUR5KGaYhU8owDZlShmnIlDJMQ6aUYRoypQzTkCllmIZMKcM0ZEoZpiFTyjANmVKG5We7AAenCAy/FgaNgx7DocMhMsa6ohw2L4Sy2fDxw1Dre/87hazxkead2Q9RHXrCeY9A30P8fhzup/Dad2DHqmyXJOdpdTGUCJz7Vw0YgDUMLngMInnZLknO05CFMfRq6Dcm26XIHT1GwHHXZbsUOU9DFsbg87Jdgtwz8JxslyDnacjCKB2R7RLknu5Ds12CnKchC+NQaUUMo0PPbJcg52nIlDJMQ6aUYRoypQzTkCllmIZMKcM0ZEoZpiFTyjANmVKGaciUMkxDppRhGjKlDNOQKWWYhkwpwzRkShmmIVPKMA2ZUoZpyJQyTEOmlGEaMqUM05ApZZiGTCnDNGRKGaYhU8owDZlShmnIlDJMQ6aUYRoypQzTkCllmIZMKcM0ZEoZpiFTyjANmVKGaciUMkxDppRhGjKlDNOQKWWYhiyMmspslyD31FZluwQ5T0MWxrbPsl2C3LNtWbZLkPM0ZGFsWZTtEuSerYuzXYKcpyEL45PHoK4626XIITGY/3i2C5HzNGRhbFsKHz+S7VLkjsX/gM3zs12KnKchC+vde+Cjh7Jdiuxb8k+Ydlu2S3FQiMT+3D2W7UIclAaMhaMuht4nQcd+EImk3j6vMNzxY3VQV5Ne2SIRiBaEfL5aqKtNvc0+FzZ+CKvegiUvple2Q5CG7EA49VY4LeS3/sw70q+atusK182Ddp2D77PzC3j6NG2SN0Cri6Z16AWjfhxun+0rW9egUFEO790fbp/D+sPIH6b/nCopDZlpZ9wB+cXh9pl5R+tbMRc8CeWfh9vn5FugpLR1z6ta0JCZ1HMkHHN5uH3WTofVb7f+uetqJKxhFJTA6F+1/rlVExoyYyJw9t3yb1B1NTAjgx/yNdPCB3bolVB6fObKoDRkxhxzuZzJwkiniudn5p0hq54ROOuezJbhEKchMyG/WK7FwkinsSKI7SvCN6L0HgVDLs18WQ5RGjITTr5ZWhXDmHM/VOwwU573/gj7y8PtM+ZOyG9npjyHGA1ZpnXsCyNvDLfPtqWw8CkjxQGgcifM+X24fTr2gZN+ZKY8hxgNWaalcwaYeYeMuDBp0d9ha8ipOqN+JGFTraIhy6TeJ8OQS8Lts/I/sHaGkeI0EasN33KZXyxfGqpVNGQZE4Gz7g63S20VvHMAP8Rls2DF5HD7DLlUGkJU2jRkmZJO/9L8x2DHajPlSeadX4cfn3hWyP4+1YSGLBPSGSmxbyu89ycz5Ull59rwA49LT4BjrzRTnkOAhiwT0hnzN+ceqNptpjx+3ndg75Zw+5zxK/kyUaFpyForndHr7qfw6XNmyhNE1R5493fh9ikplS8TFZqGrLXG3BV+QuaM22VSZjYtfgE2Lwi3z8gfypeKCkVD1hp9T4cjLwy3z/JJsG6OmfKEEoOZt4fbJa9QvlRUKBqydEWi4ZvsayqldS9XrJ8Hy14Jt8+RF0Lf0WbK00ZpyNI19BqwhoXb5+OHYVeZmfKka9ZdUFMRbp+z7pYvGRWIvlLpKOwIo0NWtfZskla9XLN7HXz4YLh9rKEw7Foz5WmDNGTpOOUn0L57uH3e/R1U7zNTntb6YALs2RBun9H/DUWdzJSnjdGQhdV5AJzwvXD7bPoYPsvhJdRq9sOs34bbp7gbnPJTM+VpYzRkYZ35m5BN9rH4wNwcX3lv6URZUzGME26AzoPMlKcNyc92AQKJ5EFeDhS1z+kw+Lxw+3w+CdyFkF/kv20slvl1D6MFEA34XTrrN3DFq+GO/aXfwuTr0ytbJtXV5ex9CnJ3cdO+p8Px34VuR0PngRDNgZAdCHs3y+2IVkyGhU+nN8/sqK/BsVdBtyHQqS+HxuDeGOwskwmwi/8BK17LdoHq5V7Iig6Dcx+CQeOyXZLscxfDa9fDjlXBtu/QE85/DPqcarZcB4P1c+H170mrbpbl1jVZJArnP6oB81hDYfyTwaqa0QK44HENmKfPafJ6hL0ngAG5FbLjrocBX852KXJL92Nh5E3+2534fZmZrRr0PllelyzLrZANGJvtEuSmfgGGMfU/03w5DkY58LrkVsj0mzixIDOue51kvhwHoxx4XXIrZDqCILHCjpnZ5lCUA69LboVMqTZIQ6aUYRoypQzTkCllmIZMKcM0ZEoZpiFTyjANmVKGaciUMkxDppRhGjKlDNOQKWWYhkwpwzRkShmmIVPKMA2ZUoZpyJQyTEOmlGEaMqUM05ApZZiGTCnDNGRKGaYhU8owDZlShmnIlDJMQ6aUYRoypQzTkCllmIZMKcM0ZEoZpiFTyjANmVKG5VbIdqzKdgly084v/LfZscZ4MQ5KOfC65FbI1s/Ldgly0+ZP/LfZ9KH5chyMcuB1ya2QLfknEMt2KXLP5//232bpRPPlOBjlwOuSWyErmwXznGyXIrcsexmWT/LfbvUUWPCE+fIcTBY8Ia9LluVnuwAtzL0f6mpg1I8hv122S5NdS/4J024Lvv07d0JdLRx/PUTyzJUr18VqYf4TMPuubJcEgEjsz91zs37WqR8cfwOUjoDux0JBSbZLZF6sThp/tiyEpS/B2unpHaf0OBj2DegxDLoOgbzCzJYzF9VWQfky2PIpfPp32Lwg2yWql7shU6qNyK1rMqXaIA2ZUoZpyJQyTEOmlGEaMqUM05ApZZiGTCnDNGRKGaYhU8owDZlShmnIlDJMQ6aUYRoypQyLolORlTIpFgW2ZbsUSrVh26LAhmyXQqk2bEMU2JjtUijVhm3QM5lSZm3UkCll1oYokP3VH5Vquz6MAm8B+7NdEqXaoP3AW1Fsdx8SNKVUZr2F7e7zRny8ktWiKNU2vQINw6omAbXZK4tSbU4tkqt4yGx3G/B0FgukVFvzdDxXTQYI34k2gCiVCfuRPAGNQ2a76wG9pYpSrefE8wS0nOpyH7D1wJZHqTZlK5Kjek1DZru7gJ8dwAIp1db8LJ6jei0nbdruU8CDB6hASrUlD8bz00SymdE2MNVocZRqW6YiuWkhEoslmRjtWF2BecARxoqlVNuwAjgF2y1P9Mvka3zIDucBy82US6k2YTlwXrKAgd9COrYrCYW3M1supdqEt5Ez2IpUG/mvVmW725Ez2oTMlEupNmECcgbb7rdh8muyRBzrm8AfgB5pF02pg9sWpJn+maA7hAsZgGN1BG5DWlLah9tZqYPWPmRE1H3Y7u4wO4YPmcexegO/Bb4J5Kd3EKVyXg3wDHAHtpvWUh3ph8zjWF2AC4CLgXFAh9YdUKms2wO8icwHmxzkuiuV1oesMccqAsYCI4HeQK9G/3ZDlwVXuaMOKEcWktqALI24AfgImIrtVmbqiTIbMqVUC3pmUcowDZlShmnIlDJMQ6aUYRoypQzTkCllmIZMKcM0ZEoZpiFTyjANmVKGaciUMkxDppRhGjKlDNOQKWWYhkwpwzRkShmmIVPKMA2ZUoZpyJQyTEOmlGEaMqUM05ApZZiGTCnDNGRKGaYhU8owDZlShh34u7HIevknpLHnRmx3baaLo5Rp2bjlUS9gbhr7/S9wS4bLopRx2buvWF4h9Bjhv93ezbCrzHx5VPY5lg1cFGDLCmz3PNPFyZTshaykFK56w3+7Tx6FGbebL4/KBaOBs7JdiEzThg+lDNOQKWWYhkwpwzRkShmmIVPKMA2ZUoZlrwlfqZZeBNYE2K7OcDkySkOmcoftvogErU3R6qJShmnIlDJMQ6aUYWZC5lh5OFYnI8fOFMfKz1gZHSuCY3XOyLFUm9P6hg/Hyge+ClwNHAv0BnoAURxrL7AOmA88BbyVgef7Qcg9XGx3YnzfscANwDDgSKAQx6oGFiDTb97Ddp9P8dylwMnAYGBQo8dAoF38710JrIg/VgLLgTnYbmWSY3YHLg/5NwFMx3aXpSjrGGCozzFqsN2/pThGBPgeEAlZtkXY7rsh92mz0g+ZY5UAvwa+hYSqQTQf8ouhancJMCT+uBJYDzye9nOKh0NuvxLHWgbcDzRMj4hEobADVO4qAE6KP64AmoZMPmjnAN9HpmEUJHyWok5QuasEGBF/NObiWE8Cj2C7q5v9bi/wF6Ao5N91D5BqesKfkb8pNceai+0uTvLbI4BHQpYLJJi5HTLHGgwcA/SMP/oCu5DP6GZgA/A+tlvR2qdKL2SOdTrwNPImQLchMOQyOPxM6NAHSnrIh7hqt8wFWzMVPnsRti3tA9zZ2kIDMOLbqX9fVw2fPgfQD5gHtKeoE5z0IxgwFroeCfntoGY/LPkXTPkJwBfN/s6jgceAMwCI5EGfU2TfzgPhsAHQeRAcdjgUtIeqPbBzDexYDTtWyb+bPoatSyzg54CNY90N3IPtVgNgu/txrDnA2fQ5TV7LVPZugpX/ATgx6TaO1RMYSX47OPaqxNts/BDcTwEuAJKFTJ6j80Do/6XU5SIGC5+Rf2G6z8aJOdbDwDUBtqzBdrulcfzR8eNfDHQGqpEMFNNw6VQZf8SAIhzrfeAfwAvY7o7Qz0k6IXOsnwB/AKJYw+CcP0HPJO93YUfofqw8TvoRLJ8EU34KFdvTKWtTY//gs0EMPvt/UFdTCBQy5BI4+14o7tp0s/xiaFd/OdWwvIFj/RI5UxdR3A2Ouw6GXQsd+yR/ysIOYA2TR2MbPoD5j8GyVwog9j/AJTjWlY2qe1OBs7GGwtm/T/1n7QkQMglOhP5fSv46rXgNJl0HMB45yyciy0QMuQRO/2Xqcm1bCgufBliH7a5IvXFSFpD5a3nHGorUgE6kaaASKaJpreJMpEZwP471G2ACtlsV5unDNXw41jeAPxKJRjn1VrjmreQBS+TI8fCNd6D0uFBPm55IQ6COvgzOe6RlwDwNM6+/wLGiONYjSHWsiKFXw7fnwmm3pQ5YKr1HwfmPwtdflrMeHAdMi1dZwPvmLwtQw+rQE9pbAD1wrL5JthoPwKCvJj/O4WfL7HQ4DcdKdlaQNzfIDPay2d5P6Z3FTJD38iHgfWRCaAnpNfa1BzoC/4N8Rk4Os3PwJ3Ssc5DrqQhn/14+dNHElycpdegJl7wIXY4Iv29Yxd2g7+kw7kGpvibTOGTwBPB98ovgomfgqxOgXZfMlKfvaPmS6TsapIFoGo7VH/gA2Mu2pbB/m/9xGj70Lb/hHKsdcg0JA7+S/BgFJV458oDzk2x1QrPnS67hCyI3QiYLNr2GtBm0JzMt6SVAKfK+jQu6U7AnlkaOp4ACRt0Mx12fTgEbFHeFCx5r3TGCKOkpVcSoT6149zrvpyOAb1HQHi7+Bww2sIxEQXu4+HnocypAf+CB+PXZbIgFO5uVpggZnA2U0GM4dOiV+jiD6z8n41v8zrH6Ad1p1wU69fMpUAzWzfH+I/shc6xiYCbwJSQYmVYCvIRjXRlk46Dp/m+gD71PhjN+lXbJmig6LDPHSeXkm6H7Mf7b7aoP2XWAXMf0G2OsWBS0hwv+JmcTuAjH+jIwA4B1s1PsGJfqTFZfVQzwRduwzTgcq3m1JH4WG+5/HPczqCgHWIPtrvHfwbgJwHDkDGZKe+AJHOtYvw39Q+ZYg4CfQgTO+l0GynYASXXIX8OZrITB58ExV4R7nrpq4q1qwZWUwim29193UX9dFiRk9de0IxP89kIg9fWYp2NfaZSSxobmzYcSYCtAyBrKPM1/Y8Mc63zgKswGzFMMTIpX0ZMKcia7GSjimMuhNMSapDUV8MVMmPN7eO8PsHSiNOnnmqo9ULEDvJSMvDHYfns2SUvpk6NgQj94cCA8fw7Mc6A2YOPTCd+TbgQ4HWnZ3E35clkGL5VO/bzrxN7xDnLhWMcD/SjpAaXHBytD8iqjvNmlQa7HZnk/ZbeqKCN4ngU6hNhrd/yxH6gCdiBN+0FEkHVEUzYJpw6ZjOaQjpYTQwy0mP1b+OtgmHg5zPszzL0f3vgBPDocPnww+HEyrbYKdq6FzZ+AuxjKl8PGD7zfRujQC/oEaDjaVQbPnAGLnoEdayBWG6N6L2xeAHPugefOgeq9/sfJL/aqpVGko1w+resCXJclrjLKWWzAOQQepDEoaciCnclitbC+fq3abF+PfR8oDLhtBdI/aAOnINdZFvJ5nwDsC3icYuCGVEP0/PrJvgL0oOuRwVqYAD56CD6YAFALfIRca1QDY6jeeyaz7pLtTrop2PEyofxzmHMvrHwD6mqSb9ftaAJ9OGfeAZU7QapHPwE+Q5p4TwUmsG3JYOY5wa5fB46F1W+D9MdMB86nbDYMuTT1fj1GSE1BwuAtYClBGRy44Uu6YNpbsM8diGMNxXYXx4d69aWgPXQZnHr/LYugchfAcmx3ffAnzjA5IdxGsIaOCuBz4Axst3H1ahfwJvAmjvUR8DeCVTujwI0kOaP5hUwuTo6+LMDzAKvehHfuApm5egW2+1KT3zvWd4DHmHVXhPx2cPx3gx23NfZslDPqno0ANUi1rBz5xvM6Hg8DutK+e7BjNpz9foDtLo//XA68jmO5wPssfCpYyDr1937qBchpPtB1WbMzmYzyGEVeIfQ/y3//ehFp6l/8PEhIF9cf0xqauuujaVmzfRa7lOBD09YDY5oFrCnb/QeOlYcMK/MLbjHwMxzrPmy3xaxtv5BJ3WnAWJ/N4uY/TvzS5s4WAQOw3cfjzasP8NFfzYeseh/8+1ovYO8AV2G7G1ts51gXAy+zZiq84NNsH4vB3i0g33otRzbY7gc41lYqd3Zn31Z8g9vw+1LgE2AHO1Z3Zs8G6NA7+X4N10pe44eM8ug7Wlovwxg8rnHI7qW+ZTHAoIHcCdkVBLsW2418Pnf5bmm7z+JY9xLs7JiPDDL4pPkvkn9NSRiGEM2HbgGawfeXexfANaQeVPqa/8EyZOlE2LIQYBVwacKAibeBCvaXy5i+VI9NH3n7LMB2kzUpyiDg3QHW8G9XPwqlc/xb8B3A/2zWeaAMW4PDcayupFNV9PQ/C/KLAE7FsSyCjvSoq4H173n/le2QnRlwuzzg5RDHfQBpFPFTSMsWWiD1mWwEkEeXI703ILXlk7zrnSnYboBhCwdArP7M/XbKMtnu3vhQmVTfWEXIYOM+yGiNIhzLif93L5qOzj+m2fMn11Ad8y4GpwMXUTbbpyshImMkpdHhdOpHeQRoum+uoD30PQPWTI0ioz+C9ZFt/sRr4FmC7fo0iRokHedBzjYx4N/YbpDQeJ5ChlP5KUK+6P7S/BepQiajXHsMS7FJIw09/i2riQcD213U4v85VkfkhbsCGAek7A/JkOD9ZaXHeSG7FSih2zEBRmckMWiczJaA/wMcQV6h/4yAhtEp2e4fO4lgze778WoKQdnuZhxrD8He+4RhSRUyGTTavkeKTRrZt8X7aVWwHXKYdC7eAvwSb1R4JCrXSB16yfjLDj3jP8cf+Qneg25Hp/PsC4FydpV1ZVdZ6tA0VOekmuLXAb13i0xDSmTwOJj2c5AWZSm739jU3Lke60awGSXVyDyxsDYDQVrFOib6n6kKJvM/gg5/2ud6P20KtkOOkiFOTyLjCqH3yTLV44gLJVim2W4Mx5oJXELZbBh6dfJtm18zpRpKtWUhLHsZxvw68e879Jbq4ZZFiY/dXG0VbJgHUgWbmXpj47oQrH8sgrQshrUe/1nmAAU4Vh62W9v4f6Zqn5WQtQs4vachZNmrm7eWY12N9Dn1p8dwuPwluHKytIIeiIA1CFZl7HqEdGiDDLrulWiUVdzySTKHLJXGIfW7Htv0sYzqkaUGtqbe2LhuJJux3lQB6YUsaO2sCmgxnypVyCRdhQFCFquF/dtBOqBzo9EjLMe6FngOKOSkm+CaKWYHCacmIfMb+RHJa5ggOuCc1H1aKybL6JSkKw3QLGQ+Z7JcGUolgk70LECGTYUV9MRRi3dyaiRVyOR3fp2RIH1H0j8WS9Gsnbtk8uNDQIQz75IqVZC/25zFgMvu9RKMVLwwpLoeK/9chpBB6rNZ6XEycDmSJx3RqeTO9RjAzoDbVSFVy7B85gzVyyNBiFN9kqTglQHKH833Bqzm41gZmuF4QD0MdOKIC2HkD4PvVVslH+BVb8GyV1o+ZPpHePJFNQPwn/pSOkIaKA4/O/k2yycn/rmFiIS1cTU0kZpK6TOUkT3Zvh4DqT0FGZVdjXS5hDUw4HZFQIu1NVI1fMjGFQG/JEpKvbU7eiZ6opzlWEcAF1JQEmDdkLj95fDu7+DT56WqnMzV/4GeSZY88Dcd+Dpls2VtkWR6jJAJoEUpakyNz17blsD2lcnHJA4a511rJbfxfW+mwfx0F5fJsO1IgII0fqQYRpNU0GDWYrstBsf6h6wy4GtYUiqLqUjIlgQsVC6Q2a2Dz/UfAgWwez08+2XvLFWLXBR/DuxptNU5eF0g6QvW+NFtCAy5OPnvd5V5o172IaNtrmDFazDq5sTb9z8Tdvu0cudWVRFgK/Je+CkgvZCV+m8CyFC7FlKFTJoL9wTsVuhYX/aR5M6LH8S5ABz1tWBbv/VjL2DvAN9JuDKTY71Ha0Nmu0txrE3s3dyT7SuSr4kSLYDh30x+nOX1Z7E3kLlWV7B8cvKQ5RfDcd9OXbZcmqQp3ifYWawYWVAn+FqSMvA66Py0jxL9z1TXZPMBmSMVxBEXej99K2CBcoX09gbpON5VBl+8A/KNdVkrlj4LagYQbPRHMg1VxYnICs572PyJnJGTSjHdp3ofbPoE5MwxK/mGB5CMSQ1yXRMBLo2Pyw3qeoJNe68gybjcVGeyT4EKdqxpR+VO/07pAV/25iUNw7FOw3bnJtnytAAFPpCk5agkQI1gS/0XztykfUOO1QdZMRmiQecPJjUduIqy2f6LuSayd4vXQFEJTMZ2K3GsycCVrHgdTrgh/DE3zIsvt8CH2O7u+OiYAeEPxKYMX8/NwKv6p1aLTIt5LuBxbyTYkKpqvC/FZpKfyeQCbgHEpOPRTzQfjq3/G/+NYzWdJyE3ofgW8AwAR6W4jjhQZNmwAoj4r2gFkFf/WieeS+JYI5BqZGcGnxtsEZrUgvWXJbNisjdIeUqjqR0ytnT5pPSO2fJ67HjkGjzsI8nSxml7AZnG4qcjcGd8XGpq0ncadMUnb6Z1C36frLeAU1j2UuomYs/pv5TGj9VTLOBDHGshsqbgQOQMJn/YqJszt+pVa8g3+xqIDWT7Cm9RmeR6niDXLDX7x+BYvwcmI1N7BgOXAV8DovQ8Eb7SYjB2Ynn1Z7uWpz3bXY5jrWff1j5sWxp+LOSK+ub6iY3+7+tABRvmtQs03625ZI0e+UWNJ6Amt3dLsG6h8F5FBgD7h0eGzM3GscYknVfmWF8HHkWu4/zsA+5L1kfsF7KngTv4/FVZv7DAZzZBXiGMfxr+81+wfHI+sdoTabwGRZfB0hx9IJce8LcIGMi2pf4hK+4mK3ZNuRWI/QL4RZPfRwtg2DXwpbuDTQ+CxqsaJ2somQ5cS9nscCGr2O6dAWuQD6Cw3T041tvE6saz8g0Y/o3gx6za7V2jV9P8hhLWcLjqjUR7NTX1Z7DwqeDPGZTt1sUnWP4W/2kv7YCjgA9wrAeAOcidfTojJ4OxyE0zwly7PZrsF6lDZrsrcazZVO87gyX/ghEB2jTyCuGCx+UCecsC2LwQDusvA22LW9uqbcQi4KJ494O/4d+UoUzz/yajKOqq5cYT1jD5Agk7xjFa4N0RphDH6pTgmzUesnfDzSRf9aY3v29mgrl0LwHjWfFauJCtf8/rF3wf2w2wUtAB9xjwK4LNLfOCdj/ypVGMdK5XIK2JeQGfcx+yPn7SqmqQ6QGPAGcw917pjwk6Kr+gPfQ5TR65TYadb14YfI+eJ8K5f81cCYq7eovRdKdlX0v8umwO0sgVcBWq5U1aFZt7Fajhi1n5VO5K3ZHdWG6NV2xJztKXI9X4oGeh4mbbhrmFVR2wBp87FQUZoPc8MIt9W+Hde0I8fxA5McxxHlDFmmle83xm7N0Ci/4ebNt29Wf4lmPk5H5ma6kol5V6g6jeC1/MAPkQtJxqb7vlwEzqquWMF1Tu9Y+1ZLvTkXGoQZd0a439wEX1t8FKwj9kcjH3faCKhU/BytczUjr2bIQ592XmWK0hy0rfBTF4+5Zg6yX6isGbN3pLvflruMtNsnUqgs+WBlg9RcYXSldDsvl9coZbkWosYyMVO7wR/JXIXUlz2S+R6yyTobokbwAAA3BJREFUVdp9wNXY7kq/DYMNNbfdJcCdxOpg8g2wtpW1hZr9sorU6tbf3TZD7gM+YFcZzPpN64826zewdoasgRHE4Wd5PyUbSh+vMgYM2YqUVUXPK0CMNVPl/fCzfo7XHTA3E3efNEq6n85FqsWZDloMGUJ3AbYbqB8k+HwO270P+AO1VfDqN+M3fEujurd7HfzrMhlPt22Z17GZXTKT9dtAJQuehGm3pXejwrpqePOmhlWS92wKFrR+Y7yp/qNxrERDeGYAsG6u/+I8tVWwqv4Mmny9FRklMZeaCm9tj9Ryb7xiarZbi+1eAzjIWScTH7Q9yO21xmC7M4LuFG7SlO3+HHiImgqYeiu8ON4bfOovVitLtD17dsPioLVVErRcYLufATbEaljwBDx5Cix4MvUo+8bKZsM/vyZ395Q3Ywogf7Ofwg7Q6ySQAaxnJSjbF8AqKnc2LA+QzNrpXpX3I2x3beqNvY7pAKv0fXGQhcxju3cARyN/616kuhvWLmQ6zS3AYGx3fpidw9/O1nZvwrGmAQ+wfl5vnhsr/V9HXSQtiR16yn3B8ovlumvPBlnV6NNnvUVGAf6DNJF+hSk/le2T2dn8PuZxrwboTtjl9xlrxnYfxrHeASZQsf3LTPu5NNX3ORW6DJL7Q3ceJF0S+7fJPaG3r4LPXvCGL4GsceLdVO9jFr8AOwOsv9gwEPsrJB4DNx0YxJSfyN1Ykin/3PspQLp5CfgjK9/weT1j3gyLfUhDUUvbVwR7TxIsCtbIcqS1zk+46qrtlgFX4VhDgMuBryPL9nn15AKkVbEWCWEd8vmMIWty/gt4Od1qciQWS7OFTxbYvwu4lmAr+YC8iH9BJkn+HFmtNqj/xXZvwbHSKfD/xXZD3DEDcKxLgT8RfFzeNuRvewDb3Rk/xlK8cYzBLcV2W64mK0N8AjZXAnAMtuvf+Sdrvge9J/FUbPecZvufSnoNIf+F7QYfDZ9pjnUYsjiOBfRAPsMVyOyTLciqVoszMdM//JnMI52mNo51K1LFuRT5dugdfxQD65Bvps+B57Hdhlm0jvUsEKau6LXiXJJGaZOcDlOw3ZdwrNeBM4Ajmz0GIm/G6vjjfeDJBB20VwOHh3zmGI4VSfDmTiL4314TKGDiOmBQwG0TtaQtI733JFSVK+Pki3CO73YZ8P8BTXKUJJtItHwAAAAASUVORK5CYII=;rounded=1;strokeColor=#788AA3;fontColor=#46495D;fillColor=#B2C9AB;" parent="WIyWlLk6GJQsqaUBKTNV-1" vertex="1">
          <mxGeometry x="220" y="15.5" width="48.3" height="63" as="geometry" />
        </mxCell>
        <mxCell id="TqFiCtSlUsyCCOBjlSMV-10" value="" style="shape=image;verticalLabelPosition=bottom;verticalAlign=top;imageAspect=0;aspect=fixed;image=data:image/png,iVBORw0KGgoAAAANSUhEUgAAALoAAAC6CAMAAAAu0KfDAAABDlBMVEVKFUv///82xe/fHlottnzrsS1JEkpBAEPk3uTDucNrUGyXipjHvcdDBEQ9AD5MIE1GDEgqwYA2ADfLHVjd1d3mHlv6vihAAEwusns/hrGwoLA4vOapG1RMKExCV1tLAEhMADMwADFVJFd9S0MpACuMW0GHcYg1zffy8PNHPGpSFktTKVQ6qtRJNmI8nshCa5WbiJySfJM7O2g7LFMhACO6G1ZgF01XAE7ZoTFUO1VKFkU9lL9GUnw/aWE1km9AXl19ZH5hQGJEX4k4im07eWZHMU9FQFRJKVxLADtMACtGRnFDSVZBd58yoHRFOVNZNFqKEExsDklXJEg1FUkXABgOABBvPkVlNke0gDqmcjzDn5N6AAAFkUlEQVR4nO2YfVfTSBSHU5SZtNukQwwGIrWGhhIJYCqiUFdsfQFcWVpgF/X7f5GdyczkpeKCNuzqOb/nD4sztz1Pbu/cmalhAAAAAAAAAAAAAAAAAAAAAAAAAAAAAAAAAAAAAAAAAAAAAD8H5P8W+FEIGZAOt+f/EOv6pyAW5bCbfz77zvjv+OSt5c2XvxNCWq8ODl5f+w2QeNjjjG7swhoivjGj5ZUqW5vrc+tzbzqdtwucd9cpWQ2zxvnNvunn06aIb7aqr0p2sj43N7e+ffR+4S5n6fAa9+9Xr9+WOlkW6nObWw+l+sPOv8f/ROoy67+kuqh1zq+obrDHy9vb28tHv5T68aOUDx8Gg9ZRJ1dnnc6UP7GDwLHZFeqWEwQ2t2KCzI6JeOsKdVaO+0HYoyfLmied41y9w169Oyy608Du+b7fiwNuX1QnNFjt8wnLoasCuSnwUZb4fjIS4SV1Zqdh8eps7mzrwXrOgz+OM/WPor+/zd1ZI+3MnMgfkYI6YfLvWq1uROLFd0S40VOjURJbRXXLkBPujOqdl2lnUaxvs0x9SbwuvNf9nQ6jWoYZ00ydGEk23jS1uhXX83C3QY1MnakZk1kzmZOjzaJ6oTmeSvVXKu2kVTAvqdN+cUapE8ctjpgjqtWZ4auhm67wb6kbJXXeHA+l+sdDqf5aqTtpas1+zxdlk9CsYKzGtLlQD/zykGlrdbsvq2g4ozlvLycl9ROrsyTcD16k6gt3O6oeQ5HFiNmUOm3fHObqVEk2k6QeaXVbVVcz6ctpVxcMaUjz/szmwv1BzolFWPtgaemAdA6XOH+e6mUapqb9NrUpcyjJO0w7lTQboeOEY1epS89o+MyxQ74o3WHI5FB9LJ8pcWY35+5HTzmPOU+PjkXr6uzseJ7Hdk5Pd/LzdSitXL/fsEWz0+qOzOIwVbFj2WGCURqdpJmlo8Tgf6is64erwty4OJtwGLPOJmfi/955d03RPfd0lCpRnkqz3rNoph7KNRDKVu7IDhOm9eKO5YOzQl9XxWVXc+XYvcO5d2FM+MvuhuF19+Yz9ta0OzHylhE1x1mtP0truR4YJfWeUK8X7ytF9WhMqxC/WFkU6rsXZ+JlcYV480XuD3R+2MDPW4nZ1s0xTNWb4RXqTa1OjOmsB1WcZDZ2lXr6CIv3XnTvl9SztBvMaSWuqZtIoNSDtJAiWQEkMAuTZiNNLiExX9Z6NzVVrVfgLtUXlfqdb6sTypgTkqGfFo75l+4wI+liW+LhhmqZxmmQT6kYTJo9pnfTutoFElqBu8z2xFDqz41ywZxnBZPEARNnqjhN899afaDyOA6CONE5tWU3b46DkCRRLaqP9Jbk9GS5V9HXedoXF1eMTN1bm7+fkyXdbtRMP37GScpZp6r1mBxVyr7DVPuOXFcORqu22k3VFhY1KliqF8/PNi5ydeJ5l13FJcsqPZANJlJ6fUers7Y+UGbwru0Mp4aC7AxjyfUa7VfSZgRa/fwTx1Pkl4bVkonbKhy/9JFX+Gh1Iyz0o7SRZydHS+25vEtVq/6iu8f5fD61Z5CWnwvW3BErnNdpfpBPskOvYSfZGyKfnxfz32FstVSb44p+C9Pqa2mH+TzdAZjd6NfVFaHPtxQ2arqcnsgcbSfp4azZs+t8zEzk1WmUyGbkNwh3pL6Y8sUtyR6a4r1ucivqe5fedADf/dv7+6PRfixPNnGbo66atC0mWpSJsfaAqDeko22WpoG08ngrDWvHFV2xy+rza1+pi82leBsmKXpKTZQGs9Gv4kk5bkYmcmvaOJdZ/3Qrv8neDml/v3dmeF94X78y6T8vG5OVyXPxXXa/fLn0qvoy/1N4gd7OL/gAAAAAAAAAAAAAAAAAAAAAAAAAAAAAAAAAAAAAAAAAAAAAqIh/APfsqEWuFQe7AAAAAElFTkSuQmCC;rounded=1;strokeColor=#788AA3;fontColor=#46495D;fillColor=#B2C9AB;" parent="WIyWlLk6GJQsqaUBKTNV-1" vertex="1">
          <mxGeometry x="550" y="135" width="44" height="44" as="geometry" />
        </mxCell>
        <mxCell id="TqFiCtSlUsyCCOBjlSMV-13" value="Extends" style="endArrow=block;endSize=16;endFill=0;html=1;rounded=1;strokeColor=#788AA3;fontColor=#46495D;fillColor=#B2C9AB;exitX=0.5;exitY=1;exitDx=0;exitDy=0;" parent="WIyWlLk6GJQsqaUBKTNV-1" edge="1" source="TqFiCtSlUsyCCOBjlSMV-8">
          <mxGeometry x="0.0001" width="160" relative="1" as="geometry">
            <mxPoint x="120" y="170" as="sourcePoint" />
            <mxPoint x="190" y="232" as="targetPoint" />
            <Array as="points">
              <mxPoint x="120" y="200" />
              <mxPoint x="120" y="232" />
            </Array>
            <mxPoint as="offset" />
          </mxGeometry>
        </mxCell>
        <mxCell id="TqFiCtSlUsyCCOBjlSMV-14" value="" style="image;aspect=fixed;perimeter=ellipsePerimeter;html=1;align=center;shadow=0;dashed=0;spacingTop=3;image=img/lib/active_directory/users.svg;rounded=1;strokeColor=#788AA3;fontColor=#46495D;fillColor=#B2C9AB;" parent="WIyWlLk6GJQsqaUBKTNV-1" vertex="1">
          <mxGeometry x="30" y="22" width="33" height="50" as="geometry" />
        </mxCell>
        <mxCell id="TqFiCtSlUsyCCOBjlSMV-15" value="Extends" style="endArrow=block;endSize=16;endFill=0;html=1;rounded=1;strokeColor=#788AA3;fontColor=#46495D;fillColor=#B2C9AB;exitX=0.314;exitY=0.667;exitDx=0;exitDy=0;exitPerimeter=0;" parent="WIyWlLk6GJQsqaUBKTNV-1" edge="1">
          <mxGeometry width="160" relative="1" as="geometry">
            <mxPoint x="40.002459999999985" y="80" as="sourcePoint" />
            <mxPoint x="80" y="130" as="targetPoint" />
            <Array as="points">
              <mxPoint x="40" y="130" />
            </Array>
          </mxGeometry>
        </mxCell>
        <mxCell id="TqFiCtSlUsyCCOBjlSMV-16" value="DB" style="endArrow=block;endSize=16;endFill=0;html=1;rounded=1;strokeColor=#788AA3;fontColor=#46495D;fillColor=#B2C9AB;" parent="WIyWlLk6GJQsqaUBKTNV-1" edge="1">
          <mxGeometry x="-0.3846" width="160" relative="1" as="geometry">
            <mxPoint x="220" y="249.04" as="sourcePoint" />
            <mxPoint x="300" y="339.04" as="targetPoint" />
            <Array as="points">
              <mxPoint x="220" y="339.04" />
            </Array>
            <mxPoint as="offset" />
          </mxGeometry>
        </mxCell>
        <mxCell id="gEHHuFpPMmn32DJKlNhr-7" style="edgeStyle=orthogonalEdgeStyle;rounded=0;orthogonalLoop=1;jettySize=auto;html=1;exitX=1;exitY=0.5;exitDx=0;exitDy=0;" edge="1" parent="WIyWlLk6GJQsqaUBKTNV-1" source="TqFiCtSlUsyCCOBjlSMV-17">
          <mxGeometry relative="1" as="geometry">
            <mxPoint x="550" y="160" as="targetPoint" />
          </mxGeometry>
        </mxCell>
        <mxCell id="TqFiCtSlUsyCCOBjlSMV-17" value="" style="shape=image;verticalLabelPosition=bottom;verticalAlign=top;imageAspect=0;aspect=fixed;image=data:image/png,iVBORw0KGgoAAAANSUhEUgAAASwAAACoCAMAAABt9SM9AAAAh1BMVEX///8AAAD5+fm4uLj19fWUlJQ7OzvR0dHy8vLi4uLr6+skJCR+fn4ICAj4+Pj8/Pyjo6Pa2tpXV1d1dXWJiYnBwcHLy8urq6tISEjo6Oizs7PY2Njf399oaGgfHx81NTVfX19JSUkrKytSUlKZmZmEhIQYGBheXl4REREwMDBBQUFnZ2d4eHgls4GiAAALnUlEQVR4nO1dZ5uqvBYFRUAsIAg2sGAv///3XUJ6AuKc9zqOIevLnAPKA8udnd0xDA0NDQ0NDQ2Nr4TnxMvZbLaMU+vTt/K30YmP85OJMQh7k0/f0Z/F6nExRWwOi0/f1l+EE0pMlRgNNV0CFlk1VSVdPf/Tt/enMKunCuCmdReBHz3nqkD30/f4V+Dt+FV320ZRFm54tnqfvsu/AffGcLLpOS483FnE0Yk5My2O+a7nueOP3u1n4c4pIVnCn7NmNj0ZPeb5qPh7ss+92PvMzX4a1GLYOfLZzoyVLgb7mfv79/pp9MjjH6oNhMW9RudfWmeAJeTR47qPLGvIKnBslXT5RLlXLMESzq6eq8J9bJNJETRw1X9i2ENEnd+948/Bxdp7aVQpLOvQRFWBfVs2RixYUeXZ7ppj5XbsOgvPXUzi3p49nrdDz/vISr9UCYfDMbKepuxJL2AMsE0r2MJb4UE+5T04qepJ257fvVKZUz6maiU9JFgDiYkxr6yiSrU0ntIPvP92P4nVcEAedSqejDkn+lZnVRhd8pnZe+/2o0g4fbTiT6549f3MkkqJL6Ss2kq33CK7cCe9Ia+snqujFWYre+cNfxCByYN9Tj8YccqqUWAc/NGk6ZPfCPcscGUG9GRssyfmtcqKAd4Kwrfd8eewsEWumIjxkT18Wr52xR36/CvMfhfStcQVXUAxe3QqKas4Ox8qogx4IQ7fe+e/jwW1F8wssQWRoHaTeU/Fr07KXWFQYSOgeNdaMcvUomswnBi+SBbZB2XLiu6RN0mTYz+gNiD2naAZr8A3jE4NWZeZFHUJ2NWbCVukj/weybb9apCQ56nkp4asqaSXYjb9AyAYX2j57t7+AL8ID4tHDhVSNVmB+LW0IgZ/5XZKtDGcVIoxY7UzQsq7mizBYLCI1j9dWbr2jFpboGPSpvC9SPFzYg39Aln+jCiro2sdaqz78ZW/sALAgkXy8M1kJTsiSGVlyIKribjg3JmP0rTqbId4rWzIkSayUpKs2BAanMqIBMrTqpPpwe4zfaLnZFk0+xqwm193wNIVluEdRNaL/tEXAC2VOT3yjCx/ySgr/kIMiwBDj7iHyixDvAoZd+UJWWxmdbsSr8UnE0+Biy6kjILHEWAmml5L1kKobTtKIfhkzp7foLpdZUwHZC6dmUPVZHU7JFlxwsXLo0BygGa5KUIdoxSF/Nj6vWqyIuJsRwtqvNuSPnKnpoC5+JFvBXZ22Weuc6QhoImeELfw3KC6FHKkO8j4Zp/4GVkDbAZ0ZqSRQK4vSjgPWxn9PkYPxEZXnpDFJqDpervMpOoRNnajTPm3BZ9nxO5rtWRFff7LE5I6syXpcSnDtioK/geSNa9YTjTrc+9L50ii9f6WW/99YLJYU6iarBo1TQVICg4uiOZSJInfOQnEGLV2VvUFmMzsQPQBSSH9SZEk/k3+7f+VrEI7CQkNF1uoilTTIJuITe79nCzaoiIkLVb4uKTRvhLIh9kwm//PyToYtG6LT1pgwXu85+5/GThvzCwgTBahp5GswlnyiJOds6oLl4iPlNBa1kX+6bG7gqMKr5DFBkvvjJji1L8aGyKWCOan7+MEBIoqvEaWYSxxnodNm+3gITWShzjJfmSO9YlpXiblXyXLGKPq3C3zAdwLq4QZTxpPuOgBdYW36etk4VAiW5PloeuoEVvGPz1fh+3TqEIv+y9kGUiVqdHx6uMAgWA5enwU75/JQpdRpLiUFGKLP/7k/P8gC5WdqBIvvdexxRa+1+z9h0ay0A5yVWQGhEeCKZG4Z/kBOSd3nhTfPJqNZE3gsbUiZDFFoxspaLUgQRgpqmBgJp+SlSpGFhs7yCSfd0VUFx9VSEit0UtkKdOsydUjy80TXZIMpPVEfaaW7RWdlSsjWXyridzg7ItRBT47+MpueHv/U/wSxOLQvVSWTFP3ebewWLHaH9mNZKF6EUXsrGJTk4eJya2ENKoQ7vC/zmnLLHiDBLW4akfzIKmuJVc9CnP3LfMNDaLfb3wRzFV6PmvK8lnGbxrJwnXjyvTiI1/6XDwaVwSzl+oYaMHaENqojWShJatGPAsAmVlABwv1ew9OIBwieWQHaCILh8ukMvqvBTIMYNhBmPIXkLFY9MSG2hZNZGF6lYjBl2AkC0Co34Oqy+qRErZeR/hqPVk4WKZI4hAAPdKeHuCGY23TggayE/Itv8/JmuAvKVNJQ6MoNK5g8ZG/IbGxRHP1KVkkI62MRWpQAWB9aKEVH2ItBx6ekDUmFCtTglvAQgX/PBWJLXLVk2YgQhe7miyPOFHqbIUAYeVq8QPODbpLO9oEfa+SLIdoub34ve8GDiqIZrZL++53UliQtvxWkMUovYEyxjsEVlryekFJi8FSDEd1GLETyTpbAeMJKDerAKmXvGIwa3wzTxUtv6xCI04kImvNNj0pU6xMgOPKlYEUSwpyptx4EdqeIU5oKSxY9bgyXBxOeGWTt7gJIuxYDKm7YqCQNUqB/We7cUKyMMOHS3CIc/al1JoacHESv8nY5rsnhAJ4nirZhFUFZLjDU5+3z80nEFsrHO5kw4itrwbR2VntQwodX1LTDqPL7KpZPupgQdptNlKAFGLGtUHL7WBkKe97jjJZwhowi0i2q9j5BKXkVCQgsOGgTG7iGZi3e6x7go+S8EEIuYW1sCiQYF2VSdQ/BfculDBYueViGvfjI7cAayaYY41VMQpWSQgj3k/2Pgx3YtdzWO3s4XqJkdKanUUyMBuwqSkB7GO/WpnUczO8upctILGR89Toezh6lbdGsAC6T4Sr9u0UfRLpU2fwzEsYB7V01fkvMYltqdHR9BO4y5o3z5lZVdRzTMu7Ngq7OPXwltGNiMuVKZ8RDTDDZaIQA3USzz+E76VJ3O3Gq0XHY2abXx4JFZ9xMmQHSioZvfoxPC4wMwqPwbLbDaZnLnM9qPEpWwd5TrWEW2vXoAS/18DVo81voZPgiGW6LOQywZbDn43quKoz7NuM8WxewZQdaKoq0Vn1+NVoT512xK/+EV4SHKMsy6JjkChWx6ChoaGhNjpjbYw/hzeZIIose/16AZqfTtrmEqZwLkoO3vdR5v9eJGsGba4z9HVcbHuFS/Z/JdQxMWgNWu7B2uV6suLDFk8t8Gj1XxlNdqk3tOuoSlaZLbxGZc5500SWTbKocNRIGJUeEEiAAbL2hbUKIqxZQVae5yCaX/zJT6qQBaacw5fIgChMgsmyXMaNcV2s83ekTBdkoI9g3Xo7WNYFyCoXJGgRhposNVXqcTJgbSOKB2/XDpSslZedzHwIa2H6j0KcBhmooHzsT4UQ7vc3r1xmqPLNheMgAFllJswzcd0tKINWY94fgkkHXlnF4irJQlUPZcs8KcpK6avlCh3UNcUKVEIW4BHqfNXI6pjCoBnYnHIrs2ExnAhpT4+XcpJtmfLJ5/OrW65Z/kqErFRZyUpNoaKqJMuB03GB3h6W6t5Bs3eIzsqKpVn88WKIMSbLH6dgl4QhLtXIWplCYT8gqxxqF0GTYFzuZIV5MQBKfod3w2LztA3uvQ6ArMsavocA7ZiqkTWpkqzywBRX466CCCQOebLuxXo0JLIQpszFVSLLqtJZpSWByErKAi0bkTXHZE2hzlosu90eJet2DsN7QKwF1cgyqAlgTECbnEAW0GnbZb8vkjWjJpRDyRKSPMqRNaUPlAHtLZD1gFxORLL6dLUdKFlCxZFyZIGnzssnClgLHpN1h5zMoIoCo2VQWRGwuZb4Am0hC7Zm7ocP4OuF0jIsvJp10i/1+NSBcjg8rseoFNw+HrfmukVkMc1cG1ciCzVuhje47Prwv4AUEqxI2kSW4eB3FQHf2cKG1xBqqzIoMXcnIzg2PiZkoaan3FlAXe+aUm3gSvKJVEBnFSe14QEnLqXDQ7W1q5hEcNwkUY8LDQ0NDQ0NDQ0NDQ0NDQ0NDQ0NDQ0NDQ0NDQ0NDQ0NDQ2Nv4X/AYQOm0SYjielAAAAAElFTkSuQmCC;rounded=1;strokeColor=#788AA3;fontColor=#46495D;fillColor=#B2C9AB;" parent="WIyWlLk6GJQsqaUBKTNV-1" vertex="1">
          <mxGeometry x="420" y="141" width="67.86" height="38" as="geometry" />
        </mxCell>
        <mxCell id="gEHHuFpPMmn32DJKlNhr-0" value="" style="shape=image;verticalLabelPosition=bottom;verticalAlign=top;imageAspect=0;aspect=fixed;image=data:image/png,iVBORw0KGgoAAAANSUhEUgAAARMAAAC3CAMAAAAGjUrGAAAAtFBMVEX///8AYYrkjgAAUYDkjADjhwAAVIIAXIcAXojihQD45M8AWob338kAVoMAT39ula7W4OfooUn88+t6nbTnnj7z0a378ORHfp3qqVzx9ffP2+PllCC2yNT56tv01bYja5Hs8fSguMg2dJeJqLzC0dv++/fxxprg5+0rb5NjjqnvvonrrGTtuYDyzabstHVUhaOqwM6UsMIAP3bnmjbhfQC5y9YARnnlkx/xyZ7rr2rvwZDppFGOV4P8AAAJmUlEQVR4nO2da2PiKBSGgyRAikSrrTZWTbzVamvVXmZ22v//v5YEoolGjNWpGcPzYVfDmRTeAudwIKlhaDQajUaj0Wg0Go1Go9FoNBqNRqPRaDQajUaj0Wg0Go1Go9F8l1YTQa/yce5q5IkPBxNAMGMD99xVyQ0IoPmjQwGgcHDuuuSEIWJVw3B7ABHAcOvc1ckFCwrFhw+PAeAszlubfDBkqCo/LhgGzJtP6oNhwacWhufRR7dPASEEUwa9QVX1jy6cJYNrP1zHDCLEKCEU9gs8uXgE+bGv7rg6XHoQAwInhR1CPiTe1sVqxcEAs8JOuUNIJ9tX/YpDAGoWtasMGGqnXB43ESCoqEF/n6DU/tBmBMDKT9cmH/gIRy1fNOPjyG0yQB+LOX56zPHlRx62xUuWDsB0/PM1ygGYRgtAf2NyafGFEByeoUpnp05x9HHgJKdVn2DgFHGm/WAoCltdtFHmelyUIvYURBXZE48Ap4CR/gQDRWkgSvEm2iGDika7wXK5eC6ZqgaPMeYhbf/H6pIX6pSoiocOoPWfqkteGEOm9C0DVkDn08SPyvI+AfSHqpIbWk7q6niFjwBOySlcNnOs7gcLVLwg33f2uBY+epTz8CXSg1gpypj7nuVPVSYvDChUhvAVDNhP1SUv+IgpNXEdwJTz8AUyoI7aYIILF80+rvcE02lx11OwtaCzd2RggIsV4Q/ZZjppiyUF6Sn+S2WA9u9bwIK54z7avxc6oMVa9Tho/wELF4Ii7SKPUZapoo5TttwvlhaDGax8HrcVZ2cjg9sJqBSpowzZajGjypOMISjOYYPhauwMfqkm22aBOkoLSU2GjjJYHaLidBTud/zwAyBAOdt6BKhTtxeEI/aM+UIP0J7C7oN3lKIkIaUSPFQlQLVTyjtKYWaUCm0G/2sSMqfKFXLLAbhZjJ7SZjAIZBmg7TpVdpQKAoQR1fi6GJxg8PAVDar6jnpVU3coBhTW/R+q2fmoBL1jjADvLpU9mz3uYg4pwc7FZ5jGDuvxZQ9AwbJGec4gZNGHmOJLn1fqFPZ6NMxDD9ZHIXfj1x1y8QdoPUwpED2kKbzQHsaPjHqXnbZ2PYapTKN4Tqa9nCXvKhe+6dObRA+QuhnT0ePAAf3NKuUJF2QZPUbgmVlGywvAyxiWVT0ECrPFMc/6WOCEFmapbCz3+hS/9bHo9ZaYXrpPXtPzVaXtCYOMUQ5mr5ceva1p7xw+4wliGADMEMTNenEUUbFEAABIKu3LjtkOwwGA+ueuRM7oIYCLM7NmZE4B23OM5zv4w3Zb/c4Ed7hot3IaEfUZwPS0qx13ABzEGHJ290C/6TAO7H8r09eZPT99XW9z87C2aXSnf+4SPD3Prtbltbfwn/xJ/QEVCADqn3CSHSNKQAjd9XRMy5EWhB2eKp/9ti0zFetZmow+zTQby7L+dKRJzQ4vXaf/jDYkgDinS80+YhBB0kNjF60sDn5WpFOyzNIOTKnJzN5pY9ovwqZmh193aMI7MlcFneokvu+sG7zj4GmdxkyUqfQtGrZsraKfTO2VAnHkNesmNNqjCe/LfUjoic6IVkUnkIMjraO4MG6x5/DqBm+iaZZtvt1s8fYZmJSlJCY3+n2/ohR1HmsaWO3VhLdkDk+0BhSakIoXtjjtWPcy7CZ48igsDrl5R7TXuh3ttrkWTTdL3Q2jqy8rLLGDLxk0CV744JwkhSI0wfVe2HKSMiTFyEFV73BNbq34vJGOkM38nVL0FMpllY2MmvDJ9tcpwjepScUQI2Q7T75gclSBwzV5CDWxugqTRtSVUspq1qoooyaGD04gykqTeuh/tjdUPCJn37+kiRggYWfYwj5YE8OYHO+SV5pIB7T5HMhQzsFGVk3cED/8fA5NjBNqYsxFh9jYom2Kq72kJu4r5Dhpvs+BiPMafj6LJsez1qQlPFAyUh2LaSY4jJjQJLxM0mZ5GjOTmjykmEXkW5PgUbug+Ql3XFnPMomxk00T6XdKip+fc00+Qg+TeHzGjXmjgzQRp1xH0tG+lXcGKDnXJGp1bIE5kPFarDS8vnfsyJO//9lRjGqtMN+eHjor87xrIuK2+BlMEZvAMEP8HU24KFvLu2ClY5dm0iDvmkgJ1qe7Rbwmm/4tTYzGXZAG2NSF95yS6Cu510QMlfUZTLHwk2cuv6cJb87szowNHUuu7Uw7FCX3mrgycSDLhgnv/A1fvGLU6ESUZ3JtJ9xR7jWRrjd64UY/EcUdo0mSrlzwBrnF/Gsyjre1KhxxFO0nNEHHaGLcrRe8+dfEaIYdRbzLaSLitehxxBNq8vJPaTJcf5WLQhglrn9Ck1vBTIZ4h2pSnk5Va6usbGgiUwOBEIONaCWuiX/UfLJbk1FJeCizFn7d0uRLddda6e2/2dN7ao87iE1N2iwaMCJJsH4l2t/VJPr9XoslkhU66oP6yci+vep2a433K4VRJjY1McTWBpZBLVmvfhKaHDd2rjeTiiVztZt1J0SxeWE5lmqQ6TjFTZ//GPbstlTuqpacmdjSRKSk2cdW0jquicxUopS9twyafEpf3Ai+yCDXXiUfn2Vpd1QS0oVdRuwAmC+772peGVyy6dR4r2VpuIItTWRzsdi7iG0OJDSRez60N3aTJDTplLfpPrzJmO0+LkHJ+uqKoK72R25iiIDXNEOz2yjQm3ZTbhrIxqUo3Ztf/L/HDp5tTerrjcHEJlhCE8MTVhQhmCRu9pyI6VNje2MUbQKayfKIqAPdSFHMlDvad9yA9yfLeOJD7r1xck1iO4MkvuuX1MQIdiN3I8ymO/dFuQLRb7Oze/c0UG4a/cBrxS7rU/ALeDFsPtEaZfNISVI0MXorURIvJ93QxBg+Qop36aLWxLTsl3WWafRkp6ycheFXbBx0S7vsQk1G710+G3du7aOdcfVXcIrCSex1LR2GMaYs+RAiRYHla+zKuDfxNodOhrFjW1//JfNujc/7DUtb5F3Mm4Td1ee1lXbLcOxwt/41u315Pz5qc1shSQfiLuqVymBjQ10Y7n2tLYpp0rhKoZPqFkY8togodxqj2r0QpbRpzZfYKfcUZd3nl5liG/ZsoI0h9m1u4tHbv43QJNObGPYQi97+bcZCk5O8x+Ylit5OcbPzURVryBO9vPPz3Q54n+43zQGVehqV4K+UhU78RH9haSQ5zd3+Mr9wKlF0Usi/aAcVMSw+4QnEf4ldmgSRXsU/d+3Ow+tm+BqCwHygHxfRaDQajUaj0Wg0Go1Go9FoNBqNRqPRaDQajUaj0Wg0Go1G803+B/E0roGtL2c+AAAAAElFTkSuQmCC;" vertex="1" parent="WIyWlLk6GJQsqaUBKTNV-1">
          <mxGeometry x="295.65999999999997" y="320" width="60.1" height="40" as="geometry" />
        </mxCell>
        <mxCell id="gEHHuFpPMmn32DJKlNhr-6" style="edgeStyle=orthogonalEdgeStyle;rounded=0;orthogonalLoop=1;jettySize=auto;html=1;exitX=1;exitY=0.5;exitDx=0;exitDy=0;entryX=0;entryY=0.5;entryDx=0;entryDy=0;" edge="1" parent="WIyWlLk6GJQsqaUBKTNV-1" source="gEHHuFpPMmn32DJKlNhr-1" target="TqFiCtSlUsyCCOBjlSMV-17">
          <mxGeometry relative="1" as="geometry" />
        </mxCell>
        <mxCell id="gEHHuFpPMmn32DJKlNhr-1" value="" style="shape=image;verticalLabelPosition=bottom;verticalAlign=top;imageAspect=0;aspect=fixed;image=data:image/png,iVBORw0KGgoAAAANSUhEUgAAASwAAACoCAMAAABt9SM9AAAAyVBMVEX/////00I2c6VkZGQ5cqJfX19aWlo6cqFXV1dTU1P/0TeHh4f/0CwaZ57/5qPp6emzs7P/+/CdnZ3/67f/11zJycnL1+P29vb/23FnZ2d7mbZrkbW0xthsbGwaZZz/4Ih9fX3c4+uqqqri4uK7u7vQ0ND/2WX/9NqNjY3w8PCXl5fCwsL/1En/+Oj/7sP/zyJbh7D/8tD/3n7/9uH/45b/6Ky7ytqXsMlGe6leibGKpsLR2+eiuM4qaZtNf6q2xtgAWpT/5JxISEiuetEyAAAKHklEQVR4nO2d+0ObOhTHwQIFpKWiFbW2Vlq0D7XqNl9Xtrv9/3/UTcK7JRC69MaGfP1hpaRpzsdzDnk6SRLaX7n2daQ566Z8YV2/vF787Iw6qUadt8Hrr2vWDftqml8OAJzgYFMBYDa4FE6W6OVxVMQpQ2z0+MK6kV9Dp0qnlFSozoHAJUkXIwJUCNfAZd1W1norD8B8NNqsW8tWjzVYAedqdKL/jNJVRxm8kYTjG+sGs1TE6g32pebv1V4WvLJuMTudhrCU6PK9EpbSYdpepvpEvtQ5jS7nFZGoHChBczsQlyGs5PqtyrGU4INhc9nqMgzD5HpQgUpRDgYMm8tWIaxRcq0IWHiFsDq/osvrsnGPoghYiFbU1yxPWQJWyCG4BBen1agELERrVDybtc5KwCJQCErAImYVSsAiZyU8i5xVo2Fl13JyKkbV6DC0TzH65x1Dq8GehdcgQ+pAeFa5Bhte1RaehdOgKAbbkWd1r2J9Pz5i3dLd6fTjEZfSCxJ80hXNuBaEdWamWt3csjZqJ3JfK8Y0ZX2GbM46k7OynlkbtgO91CNViCrMWXlYsilzF4sXpOPAIljtMlgAF2e0BjVZ5R2qnfxbCEu+Y20eVX3UZbX5HMTlLORaV6wNpKjTujGYTmC1c6wwsOQVR8/Ev4nBdgYVLgxl+YS1idT0SuE5CEm18bCsJ9ZGUpJLugWrDFYbwWrjYJlnrK2kpE8qjgUDEu9Z8oqT7sNWfrXODPlVW7mQMLDMY9ZmUlHp2mm5X7XXULXRnqNiWHzEYZ0ozDtVO8sNCe2iOSmCJVus7aSix239KocqpDWCi9dWMaxvrA2lIfJnITa1R2HYbr+D+u6LYXGRtMhTFia1xyEIoxDue3swi2F9Z20pBb2QpqyEzXqST1i1H2GFz8WwZB4yPGl+x8dgQitA222Ko5CPqYePrWBF4+d2mttBdkcHxH5gHIuLx2H53sdKx0rzVTs8TIdzLC5gEfUcCrJ6PmMFo2gL/BnOsWSLgwFP1RbkTWzR0ir4OYD/BkEw+vkZnXLqYh1Ltu7ZGkpDlbA6o+DxokQfn6fJmZ0SVrLFwQRgRX4fvf8iP750VsKKf1idR/Ij0EddC5uveIFV6laXmYJHeN3fPnRvVqWo+IBVkrNG8amdb90z0ypXBSmZj5H0T3wMRqcFHu4ss5pFNSwOnob4g3EX6P79SVnWrgOLg37WBTYIUdfpYUUHlSyvWFtKQbh1sPBUKj1WsszaUgrCzTqM4Fn6e4qsblhbSkG4pfuf8OYNhcQeiYv9DpiZUhSFt5RyO4L1g7WlNFQ8B49miK/oORYXfVLcHE0HjnMosuJiOgvzOFQ6LnadZitxssj6T0HSUhR4MvqJJiweVsKkot1ZSgjrmGIY8tAlhdpYslDowzJ52eB9PdpkRRvWioMph1DvO4fFjWOtuVa0bEMXFg8zDrEugnVWdGFZD6wtpKlgnRVVWBYPe0JSxYGo7AKWxcMQOqvTUZ5VG/4hKDqwVlyMoHO6DoIDJV5spudZpnXCTachq4tRQByGJpms1TMvhwXWZb8qo04A/4hyJwj+lUpgmV0iHXMxK4OVe51IKoHFx3QLXQlYNSRg1RA+wZ/gxM8YsK7qdx04mQ/dRlv0swQsAYtAAlYNEcIyMxuSBKxyWc/d73dxSR42NGwnEljmDZoEPbYErGpY8Ymc6BQKP3+SoK4IYJnJhLHccFjYM0up0pWIcBNJc2EReJaAFYtge1a6keik4WFIsOUoGQxGYJvbz5J+E8RhF5U8ith1GbeYpQj6DtbNw7en31HA8vJHVLbSE8luZTM5jGL9Zt1gpjqus7fbbG7/PdQTwRGmOCAbnN0jHd2QbZY0Lf5WnrfQ00m1d5mrqybn9qxur8wSXqZp3f0QqDK6/XEGj2BmJ/rQAr21urt6EKQ2dXR73P3+fHYTrnqdPV/9Pn7ictuHkJCQkJAQgSZOo//L6DpyVN0QsAiltVq6gEUoVcAil4BVQwJWleaT5CVVWBNv7C2nniSNbVpVMpa7HP/pJ1eUPWshSb1DyW1Nqovuhca6qu0UVm8+7fEC61Bt7RSWZ0+9pYBFoBmAJR32pwIWgUBVLvxx6VXJVDuFxZsaDcv1p57j9fp5z5/3cOWxsFy7oHc0mXoLp+djvhdz64vK7Q0NTVOBNMNJcU3HhpottvxjGGP4wvljADwtzTCMP6h4BMudjnUgY9yXcp9r6VHli7z7zb30exf7kaBcB5iuatBMYLSqxZ5hg7fPswX7Wks9hC8cWBAUBUphue7CQIaDG/phpvqhDt/RAbCWaizTG/OFASjphqFrsDJ9H559E2C5pju+7bp2DzZbi37HNjCyGJbv9YbAvEXP87wYlurpqqqfL5wZJKkltOaAnqr2JnN7OQa1G158owdQGQsf+Np8eQ7hG1/ftyYGMHQaX7nwdzwOX+NhSQU5qwVNR07pjqGjxTdboOAiej0F3xX71hBWlkTlDOKeUTRrNwLOpDrpJWQXGVoTlj5OTIcxOgxfLtQshCn0rbAY/J5M3UPoWjTs2anWYKHfcWhoPVjaNFewZSAvm6wxAU4XVQFvZOLOh5OtX36WYR0WajXKtfVg5fpZ4JMa6g0A9KqXuTHRY4xrsFx9H2FBK0L7/gLWGMBaRpXln3JqXPsaLHS9f7Dgcw4h+QtY8V3opvlMBHPYGL7gAxZMWijNUIAFuyK5KsIUD1/wActRoy4PBViOmnRE0jrConzA8mLLKcCaqeknQiXPD45gwWYLWBvaKazNMPT5CkOHYhhC8PkEv+QrwcOnITKHAqz+RtehF+PjA9YwHthRgGVvdEphFkNfxwUsF/bg0RsQlpYtWh8WJK/lZlthykIDIS5gLRNzIKycPVvAgn3QYeYGHBuGs69cwIJRGAWfkZ9LyMGakcFKPSn92DSufD9hjdNWe1o6cTdW8wYsMr0mLzedgIe1BK7USt739ZYaOdq+wmqpuhe129NbKRA4GRVNtQBN0ex6ci+JJyg8LOkw88vw9WTub49hqaox9pZLR4UXaY6B6Fr6ENzpzXRgdAYWmsYbxiBLYElj8EGtN7Ftfwb8yoifjfsKS104BlyO0sLZ4czNKVryAnc0VdVVJzd4GcOHpaHHCxYGDpaEFo/Q6o6qDxMextoKxd7AciTb0XSARDOGy9xde2bA93Vj6PlwNlNdpPeWQ0PXw6Ww8+FQzcKanQ9bafqfLPSw8ux6ogo+koUFr/cEFtCkP536RavJvj8J357nYYE+2WRCuNg38Zd9/+svdVVpowePF+h4kRblVDVggSeght380AjVgOVr2Y5oE1UDVk9t7cWGhN2pBizQtdKrS/Esclj++sOweSKGZavxYnJzRQqrB8d10+pyXIsElt1fwKFh41lVw+qfG2jTns7NUZrt5Q91vRTWBG1m1BfN7jTEsr3yMBweOtycdRASEvq/9R9YYveVSwMKYAAAAABJRU5ErkJggg==;" vertex="1" parent="WIyWlLk6GJQsqaUBKTNV-1">
          <mxGeometry x="290" y="140" width="71.43" height="40" as="geometry" />
        </mxCell>
        <mxCell id="gEHHuFpPMmn32DJKlNhr-2" value="" style="shape=image;verticalLabelPosition=bottom;verticalAlign=top;imageAspect=0;aspect=fixed;image=data:image/png,iVBORw0KGgoAAAANSUhEUgAAADgAAAA4CAMAAACfWMssAAAAqFBMVEX///8AAEHoB4EAAEboAH0AAD2ztMAAAE38/Py8vsnMzMzl5ur39/fp6u3JycsAAEkAADSqrLqSlara3OIrNmX0ydz10+HshLHnAHfrcqjFx9ANHViLjqSFiKB4fZQ1PmrreqzwosNgY4MAAC5TWXtpbIkAD1X99PjytM7oS5abnq8/R28AF1YYJFvrkrkAElToP4/pWpzoJ4j34evfYJvdap3O2NRJUHUxgWXDAAABv0lEQVRIie2S2XKbMBRArxBYQkIskutSsTh1UUjAxGnSxv//Z70isTvTepJJOtMnzgMjBOduEsDCwsLC/+HTh6zN5yC4tK/UG1YZhl9O/0oEVmsLEFd5zgrcK2qN1BqSpsYltFsOmyu0giAIv76Iu295lBsbxSCjrUq6CCNo5xg7Ogeqc+56gibi0N/cei8oTz0mCR+IsSQGE+0AWlwAmJHtq/j5h6mDhgqBTdx5s+xfRGlkS5QXoSaHirRY/YE4xWuG8VbxinW2oSmKm9JnPM+myyk7QExiZaTV2mIgVVjjGZRbs8N43NVe7DHfw334/SRysLRB0eqIZowxSroVhqqqPcscAHWghzFLhXzAMh/78u73lCea+IzYbTIxmSR+r3A77Rf8WINrtyjeh/Ncrm7OGUcc6Cw2JMqyCFMArGmjGcN58GbAV12l6W1Y+oPoH889em8WByI5T/x0LEG7oN65HufDFuLpx8+nP26Lf8SRF7fjOPqMfMr0sKcSPzC2RirsUQhh/r5NpjVgVjPW1z8cx2aO+Lw34FQxq0heu5GXkP4CoCjeK5o0VcBTkV4o9lXwpPj8fHetCwsLC//OLyJyIT0eZuX4AAAAAElFTkSuQmCC;" vertex="1" parent="WIyWlLk6GJQsqaUBKTNV-1">
          <mxGeometry x="700" y="133" width="46" height="46" as="geometry" />
        </mxCell>
        <mxCell id="gEHHuFpPMmn32DJKlNhr-3" value="Extends" style="endArrow=block;endSize=16;endFill=0;html=1;rounded=1;strokeColor=#788AA3;fontColor=#46495D;fillColor=#B2C9AB;" edge="1" parent="WIyWlLk6GJQsqaUBKTNV-1">
          <mxGeometry x="-0.3846" width="160" relative="1" as="geometry">
            <mxPoint x="220" y="210" as="sourcePoint" />
            <mxPoint x="290" y="160" as="targetPoint" />
            <Array as="points">
              <mxPoint x="220" y="160" />
            </Array>
            <mxPoint as="offset" />
          </mxGeometry>
        </mxCell>
      </root>
    </mxGraphModel>
  </diagram>
</mxfile>
